<?xml version="1.0" encoding="UTF-8" standalone="no"?>
<svg
   xmlns:dc="http://purl.org/dc/elements/1.1/"
   xmlns:cc="http://creativecommons.org/ns#"
   xmlns:rdf="http://www.w3.org/1999/02/22-rdf-syntax-ns#"
   xmlns:svg="http://www.w3.org/2000/svg"
   xmlns="http://www.w3.org/2000/svg"
   xmlns:sodipodi="http://sodipodi.sourceforge.net/DTD/sodipodi-0.dtd"
   xmlns:inkscape="http://www.inkscape.org/namespaces/inkscape"
   width="24"
   height="24"
   viewBox="0 0 6.3499999 6.3500002"
   version="1.1"
   id="svg8"
   inkscape:version="1.0.2-2 (e86c870879, 2021-01-15)"
   sodipodi:docname="calendar_filled.svg">
  <defs
     id="defs2" />
  <sodipodi:namedview
     id="base"
     pagecolor="#ffffff"
     bordercolor="#666666"
     borderopacity="1.0"
     inkscape:pageopacity="0.0"
     inkscape:pageshadow="2"
     inkscape:zoom="16"
     inkscape:cx="10.351099"
     inkscape:cy="12.406556"
     inkscape:document-units="mm"
     inkscape:current-layer="layer1"
     inkscape:document-rotation="0"
     showgrid="false"
     units="px"
     showguides="true"
     inkscape:guide-bbox="true"
     inkscape:window-width="1920"
     inkscape:window-height="1057"
     inkscape:window-x="-8"
     inkscape:window-y="-8"
     inkscape:window-maximized="1" />
  <metadata
     id="metadata5">
    <rdf:RDF>
      <cc:Work
         rdf:about="">
        <dc:format>image/svg+xml</dc:format>
        <dc:type
           rdf:resource="http://purl.org/dc/dcmitype/StillImage" />
        <dc:title />
      </cc:Work>
    </rdf:RDF>
  </metadata>
  <g
     inkscape:label="Layer 1"
     inkscape:groupmode="layer"
     id="layer1">
    <g
       id="g836">
      <path
         id="path1140"
         style="fill:#f38ba0;fill-opacity:1;stroke:none;stroke-width:1.16972;stroke-linecap:butt;stroke-linejoin:miter;stroke-miterlimit:4;stroke-dasharray:none;stroke-opacity:1"
         d="M 2.578125 5.6054688 L 2.5664062 21.273438 C 2.5664062 21.414468 2.5664278 21.414066 2.6484375 21.414062 L 21.351562 21.414062 C 21.433571 21.414066 21.433594 21.414469 21.433594 21.273438 L 21.419922 5.6054688 L 2.578125 5.6054688 z M 8.3085938 7.6171875 L 11.130859 7.6210938 C 11.4497 7.6203333 11.705078 7.8680802 11.705078 8.1757812 L 11.705078 10.564453 C 11.705078 10.872156 11.449697 11.121094 11.130859 11.121094 L 8.8808594 11.121094 C 8.5620184 11.121094 8.3046875 10.872155 8.3046875 10.564453 L 8.3085938 7.6171875 z M 4.7246094 7.7714844 L 6.7089844 7.7714844 C 6.9903135 7.7714844 7.2167969 7.9979689 7.2167969 8.2792969 L 7.2167969 10.462891 C 7.2167969 10.74422 6.9903124 10.970703 6.7089844 10.970703 L 4.7246094 10.970703 C 4.4432802 10.970703 4.2167969 10.744219 4.2167969 10.462891 L 4.2167969 8.2792969 C 4.2167969 7.9979677 4.4432814 7.7714844 4.7246094 7.7714844 z M 13.234375 7.7714844 L 15.21875 7.7714844 C 15.500079 7.7714844 15.726563 7.9979689 15.726562 8.2792969 L 15.726562 10.462891 C 15.726562 10.74422 15.500078 10.970703 15.21875 10.970703 L 13.234375 10.970703 C 12.953046 10.970703 12.726562 10.744219 12.726562 10.462891 L 12.726562 8.2792969 C 12.726562 7.9979677 12.953047 7.7714844 13.234375 7.7714844 z M 17.291016 7.7714844 L 19.275391 7.7714844 C 19.55672 7.7714844 19.783203 7.9979689 19.783203 8.2792969 L 19.783203 10.462891 C 19.783203 10.74422 19.556719 10.970703 19.275391 10.970703 L 17.291016 10.970703 C 17.009686 10.970703 16.783203 10.744219 16.783203 10.462891 L 16.783203 8.2792969 C 16.783203 7.9979677 17.009688 7.7714844 17.291016 7.7714844 z M 4.7246094 12.085938 L 6.7089844 12.085938 C 6.9903135 12.085938 7.2167969 12.312422 7.2167969 12.59375 L 7.2167969 14.777344 C 7.2167969 15.058673 6.9903124 15.285156 6.7089844 15.285156 L 4.7246094 15.285156 C 4.4432802 15.285156 4.2167969 15.058672 4.2167969 14.777344 L 4.2167969 12.59375 C 4.2167969 12.312421 4.4432814 12.085937 4.7246094 12.085938 z M 9.0136719 12.085938 L 10.998047 12.085938 C 11.279376 12.085938 11.505859 12.312422 11.505859 12.59375 L 11.505859 14.777344 C 11.505859 15.058673 11.279375 15.285156 10.998047 15.285156 L 9.0136719 15.285156 C 8.7323427 15.285156 8.5058594 15.058672 8.5058594 14.777344 L 8.5058594 12.59375 C 8.5058594 12.312421 8.7323439 12.085937 9.0136719 12.085938 z M 13.234375 12.085938 L 15.21875 12.085938 C 15.500079 12.085938 15.726563 12.312422 15.726562 12.59375 L 15.726562 14.777344 C 15.726562 15.058673 15.500078 15.285156 15.21875 15.285156 L 13.234375 15.285156 C 12.953046 15.285156 12.726562 15.058672 12.726562 14.777344 L 12.726562 12.59375 C 12.726562 12.312421 12.953047 12.085937 13.234375 12.085938 z M 17.291016 12.085938 L 19.275391 12.085938 C 19.55672 12.085938 19.783203 12.312422 19.783203 12.59375 L 19.783203 14.777344 C 19.783203 15.058673 19.556719 15.285156 19.275391 15.285156 L 17.291016 15.285156 C 17.009686 15.285156 16.783203 15.058672 16.783203 14.777344 L 16.783203 12.59375 C 16.783203 12.312421 17.009688 12.085937 17.291016 12.085938 z M 4.7246094 16.220703 L 6.7089844 16.220703 C 6.9903135 16.220703 7.2167969 16.447188 7.2167969 16.728516 L 7.2167969 18.912109 C 7.2167969 19.193439 6.9903124 19.419922 6.7089844 19.419922 L 4.7246094 19.419922 C 4.4432802 19.419922 4.2167969 19.193437 4.2167969 18.912109 L 4.2167969 16.728516 C 4.2167969 16.447186 4.4432814 16.220703 4.7246094 16.220703 z M 9.0136719 16.220703 L 10.998047 16.220703 C 11.279376 16.220703 11.505859 16.447188 11.505859 16.728516 L 11.505859 18.912109 C 11.505859 19.193439 11.279375 19.419922 10.998047 19.419922 L 9.0136719 19.419922 C 8.7323427 19.419922 8.5058594 19.193437 8.5058594 18.912109 L 8.5058594 16.728516 C 8.5058594 16.447186 8.7323439 16.220703 9.0136719 16.220703 z M 13.167969 16.220703 L 15.152344 16.220703 C 15.433673 16.220703 15.660156 16.447188 15.660156 16.728516 L 15.660156 18.912109 C 15.660156 19.193439 15.433672 19.419922 15.152344 19.419922 L 13.167969 19.419922 C 12.88664 19.419922 12.660156 19.193437 12.660156 18.912109 L 12.660156 16.728516 C 12.660156 16.447186 12.886641 16.220703 13.167969 16.220703 z "
         transform="scale(0.26458333)" />
      <path
         style="fill:none;stroke:#f38ba0;stroke-width:0.309;stroke-linecap:butt;stroke-linejoin:miter;stroke-miterlimit:4;stroke-dasharray:none;stroke-opacity:0.96862745"
         d="M 0.68223211,1.4833236 V 0.68384176 l 4.95533069,2.5612e-4 c 0.033114,2e-8 0.029698,2e-8 0.029698,0.0264622 V 1.4835797"
         id="path1193"
         sodipodi:nodetypes="ccccc" />
      <path
         id="path1140-3"
         style="fill:none;fill-opacity:1;stroke:#f38ba0;stroke-width:0.309489;stroke-linecap:butt;stroke-linejoin:miter;stroke-miterlimit:4;stroke-dasharray:none;stroke-opacity:1"
         d="m 0.68223211,1.4833236 -0.00309,4.1450619 c 0,0.037317 -4.24e-5,0.037364 0.021656,0.037363 1.64946989,0 3.29893989,0 4.94840999,0 0.021698,9e-7 0.021656,-4.58e-5 0.021656,-0.037363 l -0.0036,-4.1450619 c -1.6616732,0 -3.3233462,0 -4.98501919,0 z"
         sodipodi:nodetypes="ccccccc" />
    </g>
  </g>
</svg>
