<?xml version="1.0" encoding="UTF-8" standalone="no"?>
<svg
   xmlns:dc="http://purl.org/dc/elements/1.1/"
   xmlns:cc="http://creativecommons.org/ns#"
   xmlns:rdf="http://www.w3.org/1999/02/22-rdf-syntax-ns#"
   xmlns:svg="http://www.w3.org/2000/svg"
   xmlns="http://www.w3.org/2000/svg"
   xmlns:sodipodi="http://sodipodi.sourceforge.net/DTD/sodipodi-0.dtd"
   xmlns:inkscape="http://www.inkscape.org/namespaces/inkscape"
   width="24"
   height="24"
   viewBox="0 0 6.3499999 6.3500002"
   version="1.1"
   id="svg8"
   inkscape:version="1.0.2-2 (e86c870879, 2021-01-15)"
   sodipodi:docname="calendar_filled_btn.svg">
  <defs
     id="defs2" />
  <sodipodi:namedview
     id="base"
     pagecolor="#ffffff"
     bordercolor="#666666"
     borderopacity="1.0"
     inkscape:pageopacity="0.0"
     inkscape:pageshadow="2"
     inkscape:zoom="16"
     inkscape:cx="10.351099"
     inkscape:cy="12.406556"
     inkscape:document-units="mm"
     inkscape:current-layer="layer1"
     inkscape:document-rotation="0"
     showgrid="false"
     units="px"
     showguides="true"
     inkscape:guide-bbox="true"
     inkscape:window-width="1920"
     inkscape:window-height="1057"
     inkscape:window-x="-8"
     inkscape:window-y="-8"
     inkscape:window-maximized="1" />
  <metadata
     id="metadata5">
    <rdf:RDF>
      <cc:Work
         rdf:about="">
        <dc:format>image/svg+xml</dc:format>
        <dc:type
           rdf:resource="http://purl.org/dc/dcmitype/StillImage" />
        <dc:title />
      </cc:Work>
    </rdf:RDF>
  </metadata>
  <g
     inkscape:label="Layer 1"
     inkscape:groupmode="layer"
     id="layer1">
    <path
       id="path1140"
       style="fill:#135a5a;fill-opacity:1;stroke:none;stroke-width:0.309488;stroke-linecap:butt;stroke-linejoin:miter;stroke-miterlimit:4;stroke-dasharray:none;stroke-opacity:1"
       d="m 0.6821289,1.4831136 -0.003101,4.1454835 c 0,0.037314 5.71e-6,0.037208 0.021704,0.037207 h 4.9485355 c 0.021698,1.1e-6 0.021704,1.077e-4 0.021704,-0.037207 l -0.00362,-4.1454835 z m 1.5161865,0.5322672 0.7467243,0.00103 c 0.08436,-2.013e-4 0.1519288,0.065348 0.1519288,0.146761 v 0.6320027 c 0,0.081413 -0.067569,0.147278 -0.1519288,0.147278 H 2.3497274 c -0.08436,0 -0.1524455,-0.065865 -0.1524455,-0.147278 z m -0.9482625,0.040824 h 0.5250325 c 0.074435,0 0.1343588,0.059924 0.1343588,0.1343587 v 0.5777426 c 0,0.074435 -0.059924,0.1343586 -0.1343588,0.1343586 H 1.2500529 c -0.074435,0 -0.1343587,-0.059924 -0.1343587,-0.1343586 V 2.1905639 c 0,-0.074435 0.059924,-0.1343587 0.1343587,-0.1343591 z m 2.2515421,0 h 0.5250326 c 0.074435,0 0.1343588,0.059924 0.1343585,0.1343587 v 0.5777426 c 0,0.074435 -0.059924,0.1343586 -0.1343585,0.1343586 H 3.501595 c -0.074435,0 -0.1343588,-0.059924 -0.1343588,-0.1343586 V 2.1905639 c 0,-0.074435 0.059924,-0.1343587 0.1343588,-0.1343591 z m 1.0733196,0 h 0.5250325 c 0.074435,0 0.1343586,0.059924 0.1343586,0.1343587 v 0.5777426 c 0,0.074435 -0.059924,0.1343586 -0.1343586,0.1343586 H 4.5749146 c -0.074435,0 -0.1343589,-0.059924 -0.1343589,-0.1343586 V 2.1905639 c 0,-0.074435 0.059924,-0.1343587 0.1343589,-0.1343591 z M 1.2500529,3.1977377 h 0.5250325 c 0.074435,0 0.1343588,0.059924 0.1343588,0.1343586 v 0.5777426 c 0,0.074435 -0.059924,0.1343586 -0.1343588,0.1343586 H 1.2500529 c -0.074435,0 -0.1343587,-0.059924 -0.1343587,-0.1343586 V 3.3320963 c 0,-0.074435 0.059924,-0.1343588 0.1343587,-0.1343586 z m 1.1348144,0 h 0.5250326 c 0.074435,0 0.1343586,0.059924 0.1343586,0.1343586 v 0.5777426 c 0,0.074435 -0.059924,0.1343586 -0.1343586,0.1343586 H 2.3848673 c -0.074435,0 -0.1343587,-0.059924 -0.1343587,-0.1343586 V 3.3320963 c 0,-0.074435 0.059924,-0.1343588 0.1343587,-0.1343586 z m 1.1167277,0 h 0.5250326 c 0.074435,0 0.1343588,0.059924 0.1343585,0.1343586 v 0.5777426 c 0,0.074435 -0.059924,0.1343586 -0.1343585,0.1343586 H 3.501595 c -0.074435,0 -0.1343588,-0.059924 -0.1343588,-0.1343586 V 3.3320963 c 0,-0.074435 0.059924,-0.1343588 0.1343588,-0.1343586 z m 1.0733196,0 h 0.5250325 c 0.074435,0 0.1343586,0.059924 0.1343586,0.1343586 v 0.5777426 c 0,0.074435 -0.059924,0.1343586 -0.1343586,0.1343586 H 4.5749146 c -0.074435,0 -0.1343589,-0.059924 -0.1343589,-0.1343586 V 3.3320963 c 0,-0.074435 0.059924,-0.1343588 0.1343589,-0.1343586 z M 1.2500529,4.2917276 h 0.5250325 c 0.074435,0 0.1343588,0.059924 0.1343588,0.1343589 v 0.5777423 c 0,0.074435 -0.059924,0.1343588 -0.1343588,0.1343588 H 1.2500529 c -0.074435,0 -0.1343587,-0.059924 -0.1343587,-0.1343588 V 4.4260865 c 0,-0.074435 0.059924,-0.1343589 0.1343587,-0.1343589 z m 1.1348144,0 h 0.5250326 c 0.074435,0 0.1343586,0.059924 0.1343586,0.1343589 v 0.5777423 c 0,0.074435 -0.059924,0.1343588 -0.1343586,0.1343588 H 2.3848673 c -0.074435,0 -0.1343587,-0.059924 -0.1343587,-0.1343588 V 4.4260865 c 0,-0.074435 0.059924,-0.1343589 0.1343587,-0.1343589 z m 1.0991578,0 h 0.5250325 c 0.074435,0 0.1343586,0.059924 0.1343586,0.1343589 v 0.5777423 c 0,0.074435 -0.059924,0.1343588 -0.1343586,0.1343588 H 3.4840251 c -0.074435,0 -0.1343589,-0.059924 -0.1343589,-0.1343588 V 4.4260865 c 0,-0.074435 0.059924,-0.1343589 0.1343589,-0.1343589 z" />
    <path
       style="fill:none;stroke:#135a5a;stroke-width:0.309;stroke-linecap:butt;stroke-linejoin:miter;stroke-miterlimit:4;stroke-dasharray:none;stroke-opacity:0.96862745"
       d="M 0.68223211,1.4833236 V 0.68384176 l 4.95533069,2.5612e-4 c 0.033114,2e-8 0.029698,2e-8 0.029698,0.0264622 V 1.4835797"
       id="path1193"
       sodipodi:nodetypes="ccccc" />
    <path
       id="path1140-3"
       style="fill:none;fill-opacity:1;stroke:#135a5a;stroke-width:0.309489;stroke-linecap:butt;stroke-linejoin:miter;stroke-miterlimit:4;stroke-dasharray:none;stroke-opacity:1"
       d="m 0.68223211,1.4833236 -0.00309,4.1450619 c 0,0.037317 -4.24e-5,0.037364 0.021656,0.037363 1.64946989,0 3.29893989,0 4.94840999,0 0.021698,9e-7 0.021656,-4.58e-5 0.021656,-0.037363 l -0.0036,-4.1450619 c -1.6616732,0 -3.3233462,0 -4.98501919,0 z"
       sodipodi:nodetypes="ccccccc" />
  </g>
</svg>
