<?xml version="1.0" encoding="UTF-8" standalone="no"?>
<svg
   xmlns:dc="http://purl.org/dc/elements/1.1/"
   xmlns:cc="http://creativecommons.org/ns#"
   xmlns:rdf="http://www.w3.org/1999/02/22-rdf-syntax-ns#"
   xmlns:svg="http://www.w3.org/2000/svg"
   xmlns="http://www.w3.org/2000/svg"
   xmlns:sodipodi="http://sodipodi.sourceforge.net/DTD/sodipodi-0.dtd"
   xmlns:inkscape="http://www.inkscape.org/namespaces/inkscape"
   width="24"
   height="24"
   viewBox="0 0 6.3499999 6.3500002"
   version="1.1"
   id="svg8"
   inkscape:version="1.0.2-2 (e86c870879, 2021-01-15)"
   sodipodi:docname="medicine_filled_btn.svg">
  <defs
     id="defs2" />
  <sodipodi:namedview
     id="base"
     pagecolor="#ffffff"
     bordercolor="#666666"
     borderopacity="1.0"
     inkscape:pageopacity="0.0"
     inkscape:pageshadow="2"
     inkscape:zoom="16.000001"
     inkscape:cx="11.322311"
     inkscape:cy="11.340885"
     inkscape:document-units="mm"
     inkscape:current-layer="layer1"
     inkscape:document-rotation="0"
     showgrid="false"
     units="px"
     showguides="true"
     inkscape:guide-bbox="true"
     inkscape:window-width="1920"
     inkscape:window-height="1057"
     inkscape:window-x="-8"
     inkscape:window-y="-8"
     inkscape:window-maximized="1" />
  <metadata
     id="metadata5">
    <rdf:RDF>
      <cc:Work
         rdf:about="">
        <dc:format>image/svg+xml</dc:format>
        <dc:type
           rdf:resource="http://purl.org/dc/dcmitype/StillImage" />
        <dc:title />
      </cc:Work>
    </rdf:RDF>
  </metadata>
  <g
     inkscape:label="Layer 1"
     inkscape:groupmode="layer"
     id="layer1">
    <path
       id="path870"
       style="fill:none;stroke:#135a5a;stroke-width:0.3;stroke-linecap:butt;stroke-linejoin:round;stroke-miterlimit:4;stroke-dasharray:none;stroke-opacity:1"
       d="M 2.6860703,1.5266137 V 2.1404915 C 2.4809658,2.3353541 1.931403,2.705856 1.931403,2.705856 1.7617475,2.8716136 1.750749,2.9033777 1.750749,3.209161 c 0,0 -0.00466,0.5262915 -0.00466,2.1555578 0,0.1671499 0.1475662,0.2909378 0.3100256,0.2909378 h 2.2377779 c 0.162459,0 0.3100253,-0.1237879 0.3100253,-0.2909378 0,-1.6292663 -0.00466,-2.1555578 -0.00466,-2.1555578 0,-0.3057833 -0.010998,-0.3375474 -0.180654,-0.503305 0,0 -0.5495627,-0.3705019 -0.7546673,-0.5653645 V 1.5266137 Z"
       sodipodi:nodetypes="ccccsccsccccc" />
    <path
       id="path1095"
       style="fill:#135a5a;stroke:#135a5a;stroke-width:0.3;stroke-linecap:butt;stroke-linejoin:round;stroke-miterlimit:4;stroke-dasharray:none;stroke-opacity:1;fill-opacity:1"
       d="M 2.3446404,0.68897291 V 1.5178695 c 0.5535729,0 1.1071461,0 1.6607191,0 V 0.68897291 c -0.553573,0 -1.1071462,0 -1.6607191,0 z"
       sodipodi:nodetypes="ccccc" />
    <path
       id="rect1159"
       style="fill:#135a5a;stroke-width:0.339291;stroke-linecap:butt;stroke-linejoin:round;stroke-miterlimit:4;stroke-dasharray:none;fill-opacity:1"
       d="m 1.9440709,3.0556274 c -0.086648,0 -0.1565796,0.068307 -0.1565796,0.1529622 v 1.7347779 c 0,0.084655 0.069932,0.1529622 0.1565796,0.1529622 h 2.4618655 c 0.08665,0 0.156579,-0.068307 0.156579,-0.1529622 V 3.2085896 c 0,-0.084655 -0.06993,-0.1529622 -0.156579,-0.1529622 z m 1.2309327,0.4247803 c 0.0831,0 0.1498616,0.08298 0.1498616,0.1860351 V 3.9258586 H 3.584281 c 0.1030229,0 0.1860351,0.066761 0.1860351,0.1498616 0,0.0831 -0.083012,0.1498616 -0.1860351,0.1498616 H 3.3248652 v 0.2599325 c 0,0.1030554 -0.066762,0.1860351 -0.1498616,0.1860351 -0.0831,0 -0.1498616,-0.08298 -0.1498616,-0.1860351 V 4.2255818 H 2.7657263 c -0.103023,0 -0.1860352,-0.066762 -0.1860352,-0.1498616 0,-0.0831 0.083012,-0.1498616 0.1860352,-0.1498616 H 3.025142 V 3.6664428 c 0,-0.1030554 0.066762,-0.1860351 0.1498616,-0.1860351 z" />
  </g>
</svg>
