<?xml version="1.0" encoding="UTF-8" standalone="no"?>
<svg
   xmlns:dc="http://purl.org/dc/elements/1.1/"
   xmlns:cc="http://creativecommons.org/ns#"
   xmlns:rdf="http://www.w3.org/1999/02/22-rdf-syntax-ns#"
   xmlns:svg="http://www.w3.org/2000/svg"
   xmlns="http://www.w3.org/2000/svg"
   xmlns:sodipodi="http://sodipodi.sourceforge.net/DTD/sodipodi-0.dtd"
   xmlns:inkscape="http://www.inkscape.org/namespaces/inkscape"
   width="24"
   height="24"
   viewBox="0 0 6.3499999 6.3500002"
   version="1.1"
   id="svg8"
   inkscape:version="1.0.2-2 (e86c870879, 2021-01-15)"
   sodipodi:docname="settings_fill.svg">
  <defs
     id="defs2" />
  <sodipodi:namedview
     id="base"
     pagecolor="#ffffff"
     bordercolor="#666666"
     borderopacity="1.0"
     inkscape:pageopacity="0.0"
     inkscape:pageshadow="2"
     inkscape:zoom="11.313709"
     inkscape:cx="2.845323"
     inkscape:cy="12.723663"
     inkscape:document-units="mm"
     inkscape:current-layer="layer1"
     inkscape:document-rotation="0"
     showgrid="false"
     units="px"
     showguides="true"
     inkscape:guide-bbox="true"
     inkscape:window-width="1700"
     inkscape:window-height="1041"
     inkscape:window-x="0"
     inkscape:window-y="0"
     inkscape:window-maximized="0" />
  <metadata
     id="metadata5">
    <rdf:RDF>
      <cc:Work
         rdf:about="">
        <dc:format>image/svg+xml</dc:format>
        <dc:type
           rdf:resource="http://purl.org/dc/dcmitype/StillImage" />
        <dc:title />
      </cc:Work>
    </rdf:RDF>
  </metadata>
  <g
     inkscape:label="Layer 1"
     inkscape:groupmode="layer"
     id="layer1">
    <path
       id="path848-0-1"
       style="fill:#f38ba0;fill-opacity:1;stroke:#f38ba0;stroke-width:1.13386;stroke-linecap:round;stroke-linejoin:miter;stroke-miterlimit:4;stroke-dasharray:none;stroke-opacity:1"
       d="M 12 2.3789062 C 12 2.3789062 11.650874 2.3676763 11.447266 2.5078125 C 11.188991 2.7974697 10.681641 5.3652344 10.681641 5.3652344 C 9.8797848 5.5200438 9.0437485 5.8462806 8.2753906 6.3984375 C 8.2753906 6.3984375 6.0690868 5.0143733 5.6816406 4.9921875 C 5.4385754 5.0370694 5.1992188 5.2910156 5.1992188 5.2910156 C 5.1992188 5.2910156 4.9452801 5.5303848 4.9003906 5.7734375 C 4.9225765 6.1608852 6.3789062 8.3359375 6.3789062 8.3359375 C 5.9213752 9.0124023 5.5615531 9.8336658 5.3730469 10.6875 C 5.3730469 10.6875 2.7974717 11.188992 2.5078125 11.447266 C 2.3676903 11.650869 2.3789062 12 2.3789062 12 C 2.3789062 12 2.3676752 12.349129 2.5078125 12.552734 C 2.7974698 12.811008 5.4316406 13.359375 5.4316406 13.359375 C 5.6520476 14.201393 5.9786442 15.035529 6.4589844 15.771484 C 6.4589844 15.771484 5.0007015 17.946537 4.9785156 18.333984 C 5.0233937 18.577046 5.2792969 18.816406 5.2792969 18.816406 C 5.2792969 18.816406 5.5186517 19.070356 5.7617188 19.115234 C 6.1491649 19.093049 8.3242188 17.636719 8.3242188 17.636719 C 9.0006846 18.094249 9.8215899 18.454018 10.681641 18.634766 C 10.681641 18.634766 11.188991 21.20253 11.447266 21.492188 C 11.650874 21.63231 12 21.621094 12 21.621094 C 12 21.621094 12.349129 21.63231 12.552734 21.492188 C 12.811008 21.202528 13.351562 18.605469 13.351562 18.605469 C 14.186932 18.420891 15.021857 18.093621 15.757812 17.613281 C 15.757812 17.613281 17.932866 19.069606 18.320312 19.091797 C 18.563378 19.046915 18.802734 18.792969 18.802734 18.792969 C 18.802734 18.792969 19.058626 18.5536 19.103516 18.310547 C 19.081323 17.923099 17.623047 15.748047 17.623047 15.748047 C 18.080577 15.071581 18.441511 14.251352 18.628906 13.355469 C 18.628906 13.355469 21.20253 12.811009 21.492188 12.552734 C 21.632325 12.349127 21.621094 12 21.621094 12 C 21.621094 12 21.63231 11.650871 21.492188 11.447266 C 21.202528 11.188992 18.544922 10.625 18.544922 10.625 C 18.300146 9.7671262 17.972528 8.9332213 17.492188 8.1972656 C 17.492188 8.1972656 18.95047 6.0222129 18.972656 5.6347656 C 18.927778 5.3917042 18.671875 5.1523438 18.671875 5.1523438 C 18.671875 5.1523438 18.43252 4.8964406 18.189453 4.8515625 C 17.802007 4.8737536 15.652344 6.3476562 15.652344 6.3476562 C 15.000244 5.9059814 14.17841 5.5459827 13.318359 5.3652344 C 13.318359 5.3652344 12.811008 2.7974698 12.552734 2.5078125 C 12.349129 2.3676763 12 2.3789062 12 2.3789062 z M 12 8.9785156 A 3.020946 3.020946 0 0 1 15.021484 12 A 3.020946 3.020946 0 0 1 12 15.021484 A 3.020946 3.020946 0 0 1 8.9785156 12 A 3.020946 3.020946 0 0 1 12 8.9785156 z "
       transform="scale(0.26458333)" />
  </g>
</svg>
